<svg width="100" height="100" viewBox="0 0 100 100" fill="none" xmlns="http://www.w3.org/2000/svg">
<g clip-path="url(#clip0_27_2)">
<path d="M40.0217 90.8646L25.648 62.1353C23.9977 58.3024 23.1466 54.1731 23.1466 50.0001C23.1466 45.827 23.9977 41.6977 25.648 37.8648L40.0217 9.1898C45.4595 -1.79443 54.5223 -1.79443 59.9601 9.1898L74.3338 37.9191C75.9841 41.7521 76.8353 45.8813 76.8353 50.0544C76.8353 54.2275 75.9841 58.3567 74.3338 62.1896L59.9601 90.9191C54.4861 101.849 45.5138 101.849 40.0217 90.8646Z" fill="#FFF1E7"/>
<path d="M49.9909 100C45.8583 100 42.0156 96.9006 39.2061 91.2634L24.8505 62.534C23.138 58.5772 22.2546 54.3115 22.2546 50C22.2546 45.6886 23.138 41.4228 24.8505 37.466L39.2061 8.73665C42.0156 3.09952 45.8583 0 49.9909 0C54.1236 0 57.9663 3.09952 60.8664 8.73665L75.222 37.466C76.9345 41.4228 77.818 45.6886 77.818 50C77.818 54.3115 76.9345 58.5772 75.222 62.534L60.8664 91.2634C57.9663 96.9006 54.1418 100 49.9909 100ZM49.9909 1.81258C46.5833 1.81258 43.3207 4.54961 40.8193 9.55233L26.4637 38.1911C24.8545 41.9105 24.0243 45.9202 24.0243 49.9728C24.0243 54.0255 24.8545 58.0351 26.4637 61.7546L40.8193 90.4659C43.3207 95.4686 46.5833 98.2055 49.9909 98.2055C53.3986 98.2055 56.6794 95.4686 59.1626 90.4659L73.5363 61.7546C75.1455 58.0351 75.9757 54.0255 75.9757 49.9728C75.9757 45.9202 75.1455 41.9105 73.5363 38.1911L59.1626 9.55233C56.6794 4.54961 53.4167 1.81258 49.9909 1.81258Z" fill="#231F20"/>
<path d="M71.8325 85.9524L41.363 75.802C37.4887 74.2522 33.9696 71.9316 31.019 68.981C28.0684 66.0303 25.7478 62.5113 24.198 58.637L14.0475 28.1674C10.1686 16.5125 16.5126 10.1685 28.1675 14.0474L58.637 24.198C62.5113 25.7478 66.0305 28.0683 68.9811 31.0189C71.9317 33.9695 74.2522 37.4887 75.802 41.363L85.9526 71.8325C89.8315 83.5055 83.4874 89.8314 71.8325 85.9524Z" fill="#FDE2E4"/>
<path d="M78.1404 88.0007C75.8932 87.9533 73.6672 87.5558 71.5426 86.8226L41.0731 76.6539C37.0678 75.0604 33.4298 72.6664 30.3817 69.6184C27.3336 66.5703 24.9396 62.9323 23.3461 58.927L13.1956 28.4575C11.2018 22.476 11.7093 17.582 14.6457 14.6457C17.582 11.7093 22.476 11.2018 28.4575 13.1956L58.927 23.346C62.9323 24.9395 66.5703 27.3336 69.6184 30.3817C72.6664 33.4298 75.0605 37.0678 76.654 41.0731L86.8045 71.5426C88.7983 77.5241 88.2908 82.418 85.3544 85.3544C84.3909 86.2568 83.2557 86.9561 82.0163 87.4107C80.777 87.8653 79.4589 88.0659 78.1404 88.0007ZM72.1226 85.1006C77.4153 86.9132 81.6567 86.4963 84.0856 84.0856C86.5144 81.6749 86.8588 77.4152 85.0825 72.1225L74.9321 41.653C73.4462 37.9028 71.2082 34.4966 68.3558 31.6442C65.5035 28.7919 62.0972 26.5538 58.3469 25.068L27.805 14.9175C22.5123 13.1049 18.2708 13.5037 15.842 15.9325C13.4131 18.3614 13.0687 22.5847 14.8269 27.8775L24.9955 58.3469C26.4786 62.0988 28.7156 65.5066 31.5683 68.3593C34.421 71.212 37.8287 73.4491 41.5806 74.9321L72.1226 85.1006Z" fill="#231F20"/>
<path d="M90.8645 59.942L62.1352 74.4426C58.3023 76.0929 54.173 76.944 50 76.944C45.8269 76.944 41.6976 76.0929 37.8647 74.4426L9.13539 59.942C-1.84884 54.5043 -1.84884 45.4414 9.13539 40.0036L37.8647 25.6299C41.6976 23.9796 45.8269 23.1285 50 23.1285C54.173 23.1285 58.3023 23.9796 62.1352 25.6299L90.8645 40.0036C101.849 45.4414 101.849 54.5043 90.8645 59.942Z" fill="#BFE1E6"/>
<path d="M50.0091 77.7597C45.6847 77.8467 41.3966 76.9544 37.466 75.1496L8.73665 60.7938C3.09952 57.9843 0 54.1417 0 49.9184C0 45.6951 3.09952 41.943 8.73665 39.0429L37.466 24.6873C41.4228 22.9748 45.6885 22.0913 50 22.0913C54.3114 22.0913 58.5771 22.9748 62.5339 24.6873L91.2452 39.2061C96.8824 42.0337 99.9819 45.8582 99.9819 50.0816C99.9819 54.3049 96.8824 58.0569 91.2452 60.957L62.5159 75.3126C58.5835 77.0567 54.3088 77.8931 50.0091 77.7597ZM50.0091 24.0348C45.968 23.9627 41.9617 24.7925 38.2817 26.4637L9.55227 40.8374C4.56768 43.3207 1.83072 46.5833 1.83072 50.0091C1.83072 53.4349 4.56768 56.6794 9.55227 59.1807L38.2817 73.5363C41.9989 75.1539 46.0095 75.9887 50.0635 75.9887C54.1175 75.9887 58.128 75.1539 61.8453 73.5363L90.5564 59.1807C95.5592 56.6794 98.2962 53.4167 98.2962 50.0091C98.2962 46.6014 95.5592 43.3207 90.5564 40.8374L61.8453 26.4637C58.1264 24.7739 54.0746 23.9437 49.9909 24.0348H50.0091Z" fill="#231F20"/>
<path d="M85.9526 28.1674L75.802 58.637C74.2522 62.5113 71.9317 66.0303 68.9811 68.981C66.0305 71.9316 62.5113 74.2522 58.637 75.802L28.1675 85.9524C16.5126 89.8314 10.1686 83.4874 14.0475 71.8325L24.198 41.363C25.7478 37.4887 28.0684 33.9695 31.019 31.0189C33.9696 28.0683 37.4887 25.7478 41.363 24.1979L71.8325 14.0474C83.4874 10.1685 89.8315 16.44 85.9526 28.1674Z" fill="#F1EFEC"/>
<path d="M21.8416 88.0007C20.5171 88.0709 19.1922 87.8727 17.9462 87.4179C16.7003 86.9631 15.5591 86.2613 14.5913 85.3544C11.6549 82.4362 11.1474 77.5241 13.1412 71.5426L23.2917 41.0731C24.8852 37.0678 27.2793 33.4298 30.3273 30.3817C33.3754 27.3336 37.0134 24.9395 41.0187 23.346L71.4881 13.1956C77.4696 11.2018 82.3636 11.7093 85.3 14.6457C88.2363 17.582 88.744 22.476 86.7501 28.4575L76.7446 58.927C75.1511 62.9323 72.757 66.5703 69.709 69.6184C66.6609 72.6664 63.0229 75.0604 59.0176 76.6539L28.5482 86.8226C26.3888 87.5667 24.1253 87.9643 21.8416 88.0007ZM78.1404 13.8118C76.0882 13.8557 74.0563 14.2289 72.1226 14.9175L41.6531 25.068C37.9013 26.551 34.4935 28.7881 31.6408 31.6408C28.7881 34.4935 26.551 37.9012 25.068 41.653L14.8995 72.1225C13.0869 77.4152 13.5038 81.6567 15.9145 84.0856C18.3252 86.5144 22.5848 86.8588 27.8775 85.1006L58.3469 74.9321C62.0972 73.4462 65.5035 71.2082 68.3558 68.3558C71.2082 65.5035 73.4462 62.0972 74.9321 58.3469L85.0825 27.8775C86.8951 22.5847 86.4963 18.3433 84.0856 15.9325C83.2863 15.2001 82.3485 14.6352 81.3274 14.271C80.3064 13.9067 79.2227 13.7506 78.1404 13.8118Z" fill="#231F20"/>
<path d="M55.2475 50.0091L56.5888 46.0033C57.2957 43.8644 56.1356 42.7044 53.9968 43.4113L49.9909 44.7526L46.0032 43.4113C43.8644 42.7044 42.7044 43.8644 43.4113 46.0033L44.7526 50.0091L43.4113 53.9967C42.7044 56.1355 43.8644 57.2957 46.0032 56.5888L49.9909 55.2655L53.9968 56.5888C56.1356 57.2957 57.2957 56.1355 56.5888 53.9967L55.2475 50.0091Z" fill="#CFD9EF"/>
<path d="M55.1568 57.7126C54.6631 57.7048 54.1737 57.6191 53.7067 57.4588L50.0815 56.2081L46.4564 57.4588C45.9219 57.7117 45.3253 57.8036 44.7395 57.7231C44.1537 57.6426 43.604 57.3933 43.1575 57.0057C42.7671 56.5643 42.516 56.0174 42.4354 55.4337C42.3547 54.85 42.4483 54.2556 42.7043 53.7249L43.955 50.0091L42.7043 46.384C42.4011 45.861 42.2797 45.2524 42.3588 44.6532C42.4379 44.0539 42.7131 43.4975 43.1415 43.0711C43.57 42.6447 44.1277 42.3722 44.7273 42.2961C45.327 42.2199 45.9349 42.3444 46.4564 42.6501L50.0815 43.8826L53.7067 42.6501C54.2389 42.3924 54.8351 42.2963 55.4214 42.3736C56.0076 42.4509 56.5583 42.6983 57.0056 43.0851C57.3967 43.53 57.6468 44.0811 57.7242 44.6684C57.8017 45.2557 57.7029 45.8529 57.4406 46.384L56.208 50.0091L57.4406 53.7249C57.7038 54.2527 57.8031 54.8473 57.7256 55.4319C57.648 56.0166 57.3973 56.5647 57.0056 57.0057C56.7611 57.2422 56.4713 57.4268 56.1535 57.5483C55.8358 57.6698 55.4968 57.7257 55.1568 57.7126ZM50.0091 54.3049L54.2867 55.7368C54.9574 55.9544 55.5012 55.9544 55.7187 55.7368C55.9362 55.5193 55.9544 54.9756 55.7187 54.3049L54.2867 50.0273L55.7187 45.7314C55.9362 45.0788 55.9362 44.517 55.7187 44.2995C55.5012 44.082 54.9574 44.0638 54.2867 44.2995L50.0091 45.7314L45.7133 44.2995C45.0426 44.082 44.4989 44.1001 44.2814 44.2995C44.0638 44.4989 44.0457 45.0788 44.2814 45.7314L45.7133 50.0273L44.2814 54.3049C44.0638 54.9756 44.0638 55.5193 44.2814 55.7368C44.4989 55.9544 45.0426 55.9725 45.7133 55.7368L50.0091 54.3049Z" fill="#231F20"/>
</g>
<defs>
<clipPath id="clip0_27_2">
<rect width="100" height="100" fill="white"/>
</clipPath>
</defs>
</svg>
